<svg width="18" height="18" viewBox="0 0 18 18" fill="none" xmlns="http://www.w3.org/2000/svg">
<path d="M16.42 0.609863C16.69 0.609863 16.92 0.709863 17.11 0.889863C17.3 1.08986 17.39 1.30986 17.39 1.58986V17.0299C17.39 17.2999 17.29 17.5299 17.11 17.7199C17.019 17.8123 16.9098 17.8849 16.7893 17.9331C16.6688 17.9813 16.5397 18.004 16.41 17.9999H12.02V11.2999H14.27L14.58 8.64986H12.02V6.94986C12.02 6.54986 12.12 6.22986 12.3 6.01986C12.48 5.81986 12.8 5.69986 13.3 5.69986H14.67V3.34986C14.07 3.28986 13.4 3.24986 12.66 3.24986C11.65 3.24986 10.83 3.54986 10.21 4.14986C9.59 4.74986 9.28 5.58986 9.28 6.67986V8.64986H7.04V11.2999H9.28V17.9999H0.979997C0.699997 17.9999 0.479997 17.8999 0.279997 17.7199C0.187541 17.6288 0.114932 17.5196 0.0667437 17.3992C0.0185549 17.2787 -0.004171 17.1495 -3.18728e-06 17.0199V1.58986C-3.18728e-06 1.31986 0.0999968 1.08986 0.279997 0.899863C0.371033 0.807407 0.480224 0.734799 0.600696 0.68661C0.721168 0.638421 0.850312 0.615695 0.979997 0.619863H16.42V0.609863Z" fill="white"/>
</svg>
