<svg width="18" height="18" viewBox="0 0 18 18" fill="none" xmlns="http://www.w3.org/2000/svg">
<path d="M8.9799 0.579971C11.1921 0.589881 13.3114 1.46996 14.8799 3.02997C16.1699 4.33557 16.998 6.02692 17.2381 7.84656C17.4782 9.6662 17.1171 11.5145 16.2099 13.11C15.4807 14.3812 14.4272 15.4361 13.157 16.1669C11.8868 16.8978 10.4454 17.2784 8.9799 17.27C8.17877 17.2755 7.38087 17.1678 6.6099 16.95C7.0299 16.27 7.3099 15.66 7.4599 15.15L8.0499 12.86C8.1899 13.14 8.4599 13.38 8.8499 13.59C9.2499 13.79 9.6499 13.9 10.0899 13.9C10.9599 13.9 11.7399 13.65 12.4299 13.15C13.1392 12.6243 13.6922 11.9157 14.0299 11.1C14.4163 10.1723 14.6069 9.17477 14.5899 8.16997C14.5899 6.86997 14.0899 5.75997 13.0999 4.80997C12.5925 4.33219 11.9954 3.95979 11.3431 3.71433C10.6909 3.46887 9.99639 3.35522 9.2999 3.37997C8.3699 3.37997 7.4999 3.53997 6.7199 3.85997C5.75209 4.22776 4.91521 4.87453 4.31528 5.71834C3.71536 6.56216 3.37938 7.56505 3.3499 8.59997C3.3499 9.34997 3.4899 10.01 3.7799 10.58C4.0599 11.14 4.4799 11.54 5.0499 11.78C5.1499 11.82 5.2399 11.82 5.3099 11.78C5.3799 11.75 5.4299 11.68 5.4599 11.58L5.6399 10.9C5.6899 10.75 5.6599 10.6 5.5299 10.45C5.13993 9.99866 4.93616 9.41595 4.9599 8.81997C4.95115 8.27941 5.05317 7.74278 5.25969 7.24315C5.46621 6.74352 5.77285 6.29146 6.16072 5.91484C6.54858 5.53822 7.00946 5.245 7.51495 5.05327C8.02044 4.86153 8.55983 4.77533 9.0999 4.79997C10.1899 4.79997 11.0399 5.09997 11.6399 5.68997C12.2499 6.28997 12.5599 7.05997 12.5599 8.00997C12.5599 8.80997 12.4499 9.54997 12.2299 10.22C12.0532 10.8263 11.7343 11.3816 11.2999 11.84C10.8999 12.24 10.4299 12.44 9.8999 12.44C9.4699 12.44 9.1199 12.29 8.8399 11.97C8.5699 11.65 8.4799 11.27 8.5799 10.84C8.73256 10.3055 8.88924 9.77212 9.0499 9.23997L9.2299 8.50997C9.2899 8.24997 9.3199 8.03997 9.3199 7.85997C9.3199 7.49997 9.2199 7.19997 9.0399 6.96997C8.8399 6.73997 8.5699 6.61997 8.2099 6.61997C7.7599 6.61997 7.3799 6.81997 7.0799 7.23997C6.7799 7.64997 6.6199 8.16997 6.6199 8.79997C6.62491 9.18991 6.68552 9.57715 6.7999 9.94997L6.8599 10.1C6.2599 12.68 5.9099 14.2 5.7799 14.64C5.6599 15.19 5.6199 15.84 5.6499 16.58C4.16696 15.9236 2.90574 14.8519 2.01849 13.4945C1.13125 12.137 0.65592 10.5517 0.649902 8.92997C0.649902 6.62997 1.4599 4.64997 3.0899 3.02997C3.85171 2.23954 4.76733 1.61349 5.78031 1.19041C6.7933 0.767328 7.8822 0.556177 8.9799 0.569971V0.579971Z" fill="white"/>
</svg>
