<svg width="62" height="62" viewBox="0 0 62 62" fill="none" xmlns="http://www.w3.org/2000/svg">
<g filter="url(#filter0_iii_183_38)">
<rect width="62" height="62" rx="18.0092" fill="white"/>
<path d="M49.4062 0H12.5938C5.63841 0 0 5.63841 0 12.5938V49.4062C0 56.3616 5.63841 62 12.5938 62H49.4062C56.3616 62 62 56.3616 62 49.4062V12.5938C62 5.63841 56.3616 0 49.4062 0Z" fill="url(#paint0_angular_183_38)"/>
<path d="M49.4062 0H12.5938C5.63841 0 0 5.63841 0 12.5938V49.4062C0 56.3616 5.63841 62 12.5938 62H49.4062C56.3616 62 62 56.3616 62 49.4062V12.5938C62 5.63841 56.3616 0 49.4062 0Z" fill="url(#paint1_linear_183_38)" fill-opacity="0.3"/>
<circle cx="30.3796" cy="23.6486" r="8.41428" fill="#AACB24"/>
<g filter="url(#filter1_diii_183_38)">
<path fill-rule="evenodd" clip-rule="evenodd" d="M36.0738 12.3611C40.2806 13.959 43.1076 17.4702 44.2373 21.7718L44.2361 21.7729C45.6445 27.1345 42.8095 33.2568 40.0351 37.7571C38.308 40.5578 36.1824 43.1153 33.7403 45.322C32.5193 46.4254 31.2194 47.442 29.8522 48.3569C28.7194 49.1151 27.4623 49.5738 26.19 50.038C25.8676 50.1556 25.5442 50.2736 25.2216 50.3969C26.847 48.9017 27.6865 46.5294 27.2411 44.3546C26.8655 42.5212 25.6313 41.1941 24.4021 39.8724C24.2107 39.6665 24.0195 39.4609 23.8316 39.2534C21.3244 36.487 19.4694 33.1369 18.4403 29.5491C17.747 27.1322 17.4625 24.6742 17.9777 22.191C18.2278 20.9859 18.6413 19.8152 19.2021 18.7198C19.482 18.1727 19.7984 17.645 20.1479 17.1412C20.1947 17.0742 20.3254 16.9294 20.4811 16.7569C20.8159 16.3859 21.2666 15.8867 21.2479 15.7557C21.1214 14.8781 20.5516 14.2185 19.9816 13.5585C19.4292 12.919 18.8765 12.2792 18.727 11.4404C18.7989 11.8436 19.8498 12.1566 20.189 12.2366C20.912 12.409 21.6773 12.481 22.4186 12.5255C23.6168 12.5964 24.831 12.5438 26.0063 12.2868C26.3861 12.2037 26.762 12.1084 27.1374 12.0132C27.8607 11.8298 28.5828 11.6467 29.3302 11.5512C31.5986 11.2611 33.9368 11.5489 36.0738 12.3611ZM37.1658 25.9638C37.1659 25.9634 37.166 25.963 37.166 25.9626V25.9638C37.166 25.9638 37.1659 25.9638 37.1658 25.9638ZM31.8387 30.9804C34.5716 30.6789 36.6777 28.6783 37.1658 25.9638C36.2887 26.2059 35.4698 26.1956 34.6726 25.8644C33.8719 25.5309 33.2368 24.9906 32.8622 24.2128C31.9906 22.4023 32.4441 20.8592 33.9096 19.5582C31.7348 18.3395 28.9238 18.7575 26.9889 20.5725C25.1453 22.3018 24.6142 25.1734 25.6947 27.4829C26.8004 29.8496 29.2368 31.2682 31.8387 30.9804Z" fill="white"/>
</g>
</g>
<defs>
<filter id="filter0_iii_183_38" x="-1.70689" y="-6.14482" width="65.4138" height="68.1448" filterUnits="userSpaceOnUse" color-interpolation-filters="sRGB">
<feFlood flood-opacity="0" result="BackgroundImageFix"/>
<feBlend mode="normal" in="SourceGraphic" in2="BackgroundImageFix" result="shape"/>
<feColorMatrix in="SourceAlpha" type="matrix" values="0 0 0 0 0 0 0 0 0 0 0 0 0 0 0 0 0 0 127 0" result="hardAlpha"/>
<feOffset dx="-1.36552" dy="-11.2655"/>
<feGaussianBlur stdDeviation="2.56034"/>
<feComposite in2="hardAlpha" operator="arithmetic" k2="-1" k3="1"/>
<feColorMatrix type="matrix" values="0 0 0 0 0 0 0 0 0 0 0 0 0 0 0 0 0 0 0.2 0"/>
<feBlend mode="normal" in2="shape" result="effect1_innerShadow_183_38"/>
<feColorMatrix in="SourceAlpha" type="matrix" values="0 0 0 0 0 0 0 0 0 0 0 0 0 0 0 0 0 0 127 0" result="hardAlpha"/>
<feOffset dx="2.38965" dy="-2.38965"/>
<feGaussianBlur stdDeviation="0.853447"/>
<feComposite in2="hardAlpha" operator="arithmetic" k2="-1" k3="1"/>
<feColorMatrix type="matrix" values="0 0 0 0 0.461354 0 0 0 0 0.858333 0 0 0 0 0.667783 0 0 0 1 0"/>
<feBlend mode="normal" in2="effect1_innerShadow_183_38" result="effect2_innerShadow_183_38"/>
<feColorMatrix in="SourceAlpha" type="matrix" values="0 0 0 0 0 0 0 0 0 0 0 0 0 0 0 0 0 0 127 0" result="hardAlpha"/>
<feOffset dx="-1.70689" dy="-6.14482"/>
<feGaussianBlur stdDeviation="3.41379"/>
<feComposite in2="hardAlpha" operator="arithmetic" k2="-1" k3="1"/>
<feColorMatrix type="matrix" values="0 0 0 0 0.00237846 0 0 0 0 0.570833 0 0 0 0 0.400297 0 0 0 1 0"/>
<feBlend mode="normal" in2="effect2_innerShadow_183_38" result="effect3_innerShadow_183_38"/>
</filter>
<filter id="filter1_diii_183_38" x="13.9685" y="4.44899" width="37.2272" height="53.7538" filterUnits="userSpaceOnUse" color-interpolation-filters="sRGB">
<feFlood flood-opacity="0" result="BackgroundImageFix"/>
<feColorMatrix in="SourceAlpha" type="matrix" values="0 0 0 0 0 0 0 0 0 0 0 0 0 0 0 0 0 0 127 0" result="hardAlpha"/>
<feOffset dx="2.43934" dy="3.65902"/>
<feGaussianBlur stdDeviation="2.07344"/>
<feComposite in2="hardAlpha" operator="out"/>
<feColorMatrix type="matrix" values="0 0 0 0 0 0 0 0 0 0 0 0 0 0 0 0 0 0 0.25 0"/>
<feBlend mode="normal" in2="BackgroundImageFix" result="effect1_dropShadow_183_38"/>
<feBlend mode="normal" in="SourceGraphic" in2="effect1_dropShadow_183_38" result="shape"/>
<feColorMatrix in="SourceAlpha" type="matrix" values="0 0 0 0 0 0 0 0 0 0 0 0 0 0 0 0 0 0 127 0" result="hardAlpha"/>
<feOffset dx="-3.74541" dy="-6.99144"/>
<feGaussianBlur stdDeviation="5.61812"/>
<feComposite in2="hardAlpha" operator="arithmetic" k2="-1" k3="1"/>
<feColorMatrix type="matrix" values="0 0 0 0 0.058087 0 0 0 0 0.191667 0 0 0 0 0.0399306 0 0 0 0.25 0"/>
<feBlend mode="normal" in2="shape" result="effect2_innerShadow_183_38"/>
<feColorMatrix in="SourceAlpha" type="matrix" values="0 0 0 0 0 0 0 0 0 0 0 0 0 0 0 0 0 0 127 0" result="hardAlpha"/>
<feOffset dx="1.74786" dy="-1.74786"/>
<feGaussianBlur stdDeviation="0.624235"/>
<feComposite in2="hardAlpha" operator="arithmetic" k2="-1" k3="1"/>
<feColorMatrix type="matrix" values="0 0 0 0 1 0 0 0 0 1 0 0 0 0 1 0 0 0 0.45 0"/>
<feBlend mode="normal" in2="effect2_innerShadow_183_38" result="effect3_innerShadow_183_38"/>
<feColorMatrix in="SourceAlpha" type="matrix" values="0 0 0 0 0 0 0 0 0 0 0 0 0 0 0 0 0 0 127 0" result="hardAlpha"/>
<feOffset dx="-0.731803"/>
<feGaussianBlur stdDeviation="0.609836"/>
<feComposite in2="hardAlpha" operator="arithmetic" k2="-1" k3="1"/>
<feColorMatrix type="matrix" values="0 0 0 0 0.452812 0 0 0 0 0.675 0 0 0 0 0.501694 0 0 0 1 0"/>
<feBlend mode="normal" in2="effect3_innerShadow_183_38" result="effect4_innerShadow_183_38"/>
</filter>
<radialGradient id="paint0_angular_183_38" cx="0" cy="0" r="1" gradientUnits="userSpaceOnUse" gradientTransform="translate(31 31) rotate(90) scale(31)">
<stop offset="0.505208" stop-color="#03A44C"/>
<stop offset="1" stop-color="#006D57"/>
</radialGradient>
<linearGradient id="paint1_linear_183_38" x1="31" y1="0" x2="31" y2="62" gradientUnits="userSpaceOnUse">
<stop offset="0.572917" stop-color="#000101" stop-opacity="0"/>
<stop offset="1" stop-color="#003E7C"/>
</linearGradient>
</defs>
</svg>
