<svg width="20" height="20" viewBox="0 0 20 20" fill="none" xmlns="http://www.w3.org/2000/svg">
<g clip-path="url(#clip0_135_19)">
<g clip-path="url(#clip1_135_19)">
<path fill-rule="evenodd" clip-rule="evenodd" d="M11.03 11.68C10.4928 12.2171 9.85521 12.6432 9.15345 12.9339C8.45168 13.2245 7.69954 13.3742 6.93996 13.3742C6.18037 13.3742 5.42823 13.2245 4.72646 12.9339C4.0247 12.6432 3.38706 12.2171 2.84996 11.68C2.31285 11.1429 1.88679 10.5053 1.59611 9.80351C1.30543 9.10175 1.15582 8.3496 1.15582 7.59002C1.15582 6.83044 1.30543 6.07829 1.59611 5.37653C1.88679 4.67477 2.31285 4.03713 2.84996 3.50002C3.93469 2.41529 5.40591 1.80589 6.93996 1.80589C8.474 1.80589 9.94522 2.41529 11.03 3.50002C12.1147 4.58476 12.7241 6.05597 12.7241 7.59002C12.7241 9.12407 12.1147 10.5953 11.03 11.68ZM11.29 12.8C9.94474 13.9266 8.21513 14.4879 6.46472 14.3657C4.71431 14.2435 3.07942 13.4475 1.90373 12.145C0.728047 10.8424 0.10313 9.1348 0.160348 7.38106C0.217565 5.62732 0.95246 3.96406 2.21055 2.74092C3.46864 1.51777 5.15194 0.830014 6.90659 0.822211C8.66124 0.814407 10.3506 1.48717 11.6195 2.69907C12.8884 3.91098 13.6381 5.56764 13.7109 7.32079C13.7837 9.07395 13.174 10.7871 12.01 12.1L17.41 17.5C17.462 17.5452 17.504 17.6007 17.5336 17.6629C17.5631 17.7252 17.5795 17.7928 17.5817 17.8617C17.5838 17.9306 17.5717 17.9991 17.5461 18.0631C17.5206 18.1271 17.482 18.1851 17.433 18.2334C17.3839 18.2818 17.3254 18.3195 17.261 18.3442C17.1967 18.3689 17.128 18.38 17.0592 18.3769C16.9903 18.3737 16.9229 18.3564 16.8611 18.326C16.7993 18.2955 16.7444 18.2527 16.7 18.2L11.29 12.8Z" fill="#121212"/>
</g>
</g>
<defs>
<clipPath id="clip0_135_19">
<rect width="20" height="20" fill="white"/>
</clipPath>
<clipPath id="clip1_135_19">
<rect width="18" height="19" fill="white"/>
</clipPath>
</defs>
</svg>
