<svg width="1276" height="179" viewBox="0 0 1276 179" fill="none" xmlns="http://www.w3.org/2000/svg">
<g clip-path="url(#clip0_138_558)">
<path fill-rule="evenodd" clip-rule="evenodd" d="M363.922 158.818C357.38 158.818 351.646 157.072 346.719 153.581C341.873 150.089 338.118 145.129 335.452 138.701C332.787 132.194 331.455 124.536 331.455 115.727C331.455 106.839 332.787 99.1814 335.452 92.7535C338.118 86.3256 341.873 81.3658 346.719 77.874C351.646 74.3823 357.38 72.6365 363.922 72.6365C370.544 72.6365 376.279 74.3823 381.124 77.874C385.97 81.3658 389.726 86.3256 392.391 92.7535C395.056 99.1814 396.389 106.839 396.389 115.727C396.389 124.536 395.056 132.194 392.391 138.701C389.726 145.129 385.97 150.089 381.124 153.581C376.279 157.072 370.544 158.818 363.922 158.818ZM344.538 115.727C344.538 120.171 344.942 124.219 345.75 127.869C346.557 131.519 347.688 134.694 349.142 137.392L370.342 85.8494C368.323 84.8971 366.183 84.421 363.922 84.421C358.268 84.421 353.624 87.2382 349.99 92.8725C346.355 98.4275 344.538 106.046 344.538 115.727ZM363.922 147.153C367.718 147.153 371.069 145.883 373.977 143.344C376.884 140.804 379.146 137.193 380.761 132.511C382.457 127.75 383.305 122.155 383.305 115.727C383.305 111.283 382.901 107.236 382.094 103.586C381.286 99.9353 380.155 96.8007 378.701 94.1819L357.501 145.724C359.52 146.677 361.66 147.153 363.922 147.153ZM409.425 157.39V147.391C417.744 140.884 425.013 134.892 431.232 129.416C437.531 123.941 442.458 118.664 446.011 113.585C449.565 108.506 451.342 103.348 451.342 98.1101C451.342 93.7455 450.09 90.3331 447.586 87.873C445.083 85.3336 441.69 84.0639 437.41 84.0639C432.483 84.0639 428.687 85.6114 426.022 88.7063C423.357 91.7219 422.024 95.3326 422.024 99.5385H409.546C409.627 93.6661 410.879 88.746 413.302 84.7781C415.725 80.8103 418.996 77.7947 423.115 75.7314C427.314 73.6681 432.08 72.6365 437.41 72.6365C446.052 72.6365 452.715 74.9378 457.399 79.5405C462.083 84.0639 464.426 90.1347 464.426 97.753C464.426 102.594 463.335 107.276 461.155 111.799C459.055 116.243 456.268 120.489 452.795 124.536C449.323 128.583 445.446 132.432 441.165 136.082C436.966 139.733 432.726 143.225 428.445 146.558H466.727V157.39H409.425ZM599.384 158.818C592.878 158.818 587.174 157.072 582.274 153.581C577.454 150.089 573.718 145.129 571.067 138.701C568.416 132.194 567.091 124.536 567.091 115.727C567.091 106.839 568.416 99.1814 571.067 92.7535C573.718 86.3256 577.454 81.3658 582.274 77.874C587.174 74.3823 592.878 72.6365 599.384 72.6365C605.972 72.6365 611.675 74.3823 616.495 77.874C621.315 81.3658 625.051 86.3256 627.702 92.7535C630.353 99.1814 631.678 106.839 631.678 115.727C631.678 124.536 630.353 132.194 627.702 138.701C625.051 145.129 621.315 150.089 616.495 153.581C611.675 157.072 605.972 158.818 599.384 158.818ZM580.105 115.727C580.105 120.171 580.506 124.219 581.31 127.869C582.113 131.519 583.238 134.694 584.684 137.392L605.771 85.8494C603.763 84.8971 601.634 84.421 599.384 84.421C593.761 84.421 589.142 87.2382 585.527 92.8725C581.912 98.4275 580.105 106.046 580.105 115.727ZM599.384 147.153C603.16 147.153 606.494 145.883 609.386 143.344C612.278 140.804 614.527 137.193 616.134 132.511C617.821 127.75 618.664 122.155 618.664 115.727C618.664 111.283 618.263 107.236 617.459 103.586C616.656 99.9353 615.531 96.8007 614.085 94.1819L592.998 145.724C595.006 146.677 597.135 147.153 599.384 147.153ZM672.962 158.818C667.419 158.818 662.398 157.787 657.9 155.723C653.401 153.66 649.826 150.645 647.175 146.677C644.524 142.629 643.078 137.749 642.837 132.035H655.61C655.851 136.4 657.458 140.011 660.43 142.868C663.483 145.724 667.66 147.153 672.962 147.153C678.184 147.153 682.281 145.883 685.253 143.344C688.225 140.804 689.711 137.313 689.711 132.869C689.711 127.948 687.904 124.338 684.289 122.036C680.674 119.735 676.256 118.584 671.034 118.584H663.563V107.395H669.95C674.689 107.395 678.585 106.443 681.638 104.538C684.691 102.633 686.217 99.6576 686.217 95.6104C686.217 92.1186 685.052 89.3808 682.722 87.3969C680.393 85.3336 677.099 84.302 672.841 84.302C668.504 84.302 665.049 85.4526 662.479 87.754C659.908 90.0554 658.462 92.9916 658.141 96.5626H645.488C645.729 91.8012 647.015 87.635 649.344 84.0639C651.674 80.4928 654.847 77.7153 658.864 75.7314C662.88 73.6681 667.54 72.6365 672.841 72.6365C678.625 72.6365 683.445 73.6284 687.301 75.6124C691.157 77.5169 694.049 80.096 695.977 83.3497C697.905 86.6033 698.869 90.2537 698.869 94.301C698.869 98.4275 697.624 101.999 695.134 105.014C692.724 107.95 689.792 110.093 686.337 111.442V112.156C690.997 113.426 694.812 115.807 697.785 119.298C700.837 122.711 702.364 127.314 702.364 133.107C702.364 137.789 701.199 142.114 698.869 146.081C696.62 149.97 693.286 153.065 688.868 155.366C684.53 157.668 679.228 158.818 672.962 158.818ZM817.939 153.581C822.848 157.072 828.562 158.818 835.082 158.818C841.681 158.818 847.396 157.072 852.225 153.581C857.054 150.089 860.796 145.129 863.452 138.701C866.108 132.194 867.436 124.536 867.436 115.727C867.436 106.839 866.108 99.1814 863.452 92.7535C860.796 86.3256 857.054 81.3658 852.225 77.874C847.396 74.3823 841.681 72.6365 835.082 72.6365C828.562 72.6365 822.848 74.3823 817.939 77.874C813.11 81.3658 809.367 86.3256 806.711 92.7535C804.055 99.1814 802.727 106.839 802.727 115.727C802.727 124.536 804.055 132.194 806.711 138.701C809.367 145.129 813.11 150.089 817.939 153.581ZM816.973 127.869C816.168 124.219 815.766 120.171 815.766 115.727C815.766 106.046 817.576 98.4275 821.198 92.8725C824.82 87.2382 829.448 84.421 835.082 84.421C837.335 84.421 839.468 84.8971 841.48 85.8494L820.353 137.392C818.904 134.694 817.778 131.519 816.973 127.869ZM845.102 143.344C842.204 145.883 838.864 147.153 835.082 147.153C832.828 147.153 830.695 146.677 828.683 145.724L849.81 94.1819C851.259 96.8007 852.386 99.9353 853.19 103.586C853.995 107.236 854.398 111.283 854.398 115.727C854.398 122.155 853.553 127.75 851.862 132.511C850.253 137.193 847.999 140.804 845.102 143.344ZM917.49 139.415V157.39H930.287V139.415H941.273V127.988H930.287V74.0649H915.196L877.409 129.536V139.415H917.49ZM918.214 127.988H891.655L918.214 88.2301V127.988ZM1073.96 158.818C1067.45 158.818 1061.74 157.072 1056.83 153.581C1052.01 150.089 1048.27 145.129 1045.62 138.701C1042.96 132.194 1041.64 124.536 1041.64 115.727C1041.64 106.839 1042.96 99.1814 1045.62 92.7535C1048.27 86.3256 1052.01 81.3658 1056.83 77.874C1061.74 74.3823 1067.45 72.6365 1073.96 72.6365C1080.55 72.6365 1086.26 74.3823 1091.08 77.874C1095.91 81.3658 1099.65 86.3256 1102.3 92.7535C1104.95 99.1814 1106.28 106.839 1106.28 115.727C1106.28 124.536 1104.95 132.194 1102.3 138.701C1099.65 145.129 1095.91 150.089 1091.08 153.581C1086.26 157.072 1080.55 158.818 1073.96 158.818ZM1054.66 115.727C1054.66 120.171 1055.06 124.219 1055.87 127.869C1056.67 131.519 1057.8 134.694 1059.24 137.392L1080.35 85.8494C1078.34 84.8971 1076.21 84.421 1073.96 84.421C1068.33 84.421 1063.71 87.2382 1060.09 92.8725C1056.47 98.4275 1054.66 106.046 1054.66 115.727ZM1073.96 147.153C1077.74 147.153 1081.07 145.883 1083.97 143.344C1086.86 140.804 1089.11 137.193 1090.72 132.511C1092.41 127.75 1093.26 122.155 1093.26 115.727C1093.26 111.283 1092.85 107.236 1092.05 103.586C1091.25 99.9353 1090.12 96.8007 1088.67 94.1819L1067.57 145.724C1069.58 146.677 1071.71 147.153 1073.96 147.153ZM1146.88 158.818C1141.01 158.818 1135.9 157.747 1131.56 155.604C1127.22 153.462 1123.8 150.525 1121.31 146.796C1118.9 143.066 1117.49 138.86 1117.09 134.178H1130.11C1130.92 138.066 1132.77 141.201 1135.66 143.582C1138.64 145.962 1142.42 147.153 1147 147.153C1152.39 147.153 1156.65 145.486 1159.78 142.153C1162.92 138.741 1164.49 134.376 1164.49 129.059C1164.49 123.425 1162.88 119.06 1159.66 115.965C1156.45 112.871 1152.35 111.323 1147.36 111.323C1143.34 111.323 1139.92 112.236 1137.11 114.061C1134.29 115.886 1132.08 118.187 1130.48 120.965H1118.17L1125.41 74.0649H1171.36V85.7304H1135.3L1131.2 107.038H1132.04C1133.73 105.133 1135.98 103.546 1138.8 102.276C1141.69 101.007 1145.11 100.372 1149.05 100.372C1154.84 100.372 1159.78 101.602 1163.88 104.062C1168.06 106.522 1171.28 109.934 1173.53 114.299C1175.78 118.584 1176.91 123.465 1176.91 128.94C1176.91 134.495 1175.66 139.535 1173.17 144.058C1170.76 148.581 1167.3 152.192 1162.8 154.89C1158.3 157.509 1152.99 158.818 1146.88 158.818ZM113.181 153.581C118.081 157.073 123.784 158.818 130.29 158.818C136.877 158.818 142.58 157.073 147.4 153.581C152.219 150.089 155.954 145.129 158.605 138.701C161.256 132.194 162.581 124.536 162.581 115.727C162.581 106.839 161.256 99.1815 158.605 92.7536C155.954 86.3257 152.219 81.3659 147.4 77.8742C142.58 74.3824 136.877 72.6366 130.29 72.6366C123.784 72.6366 118.081 74.3824 113.181 77.8742C108.362 81.3659 104.627 86.3257 101.976 92.7536C99.3254 99.1815 98 106.839 98 115.727C98 124.536 99.3254 132.194 101.976 138.701C104.627 145.129 108.362 150.089 113.181 153.581ZM112.217 127.869C111.414 124.219 111.013 120.171 111.013 115.727C111.013 106.046 112.82 98.4276 116.434 92.8726C120.049 87.2383 124.668 84.4211 130.29 84.4211C132.54 84.4211 134.668 84.8973 136.676 85.8495L115.591 137.392C114.145 134.694 113.021 131.52 112.217 127.869ZM140.291 143.344C137.399 145.883 134.066 147.153 130.29 147.153C128.041 147.153 125.913 146.677 123.905 145.724L144.99 94.182C146.436 96.8008 147.56 99.9354 148.364 103.586C149.167 107.236 149.568 111.283 149.568 115.727C149.568 122.155 148.725 127.75 147.038 132.512C145.432 137.194 143.183 140.804 140.291 143.344ZM175.065 146.082V157.39H231.091V146.082H208.68V74.065H200.849L176.028 82.2785V92.5155L195.909 88.9445V146.082H175.065Z" fill="url(#paint0_linear_138_558)"/>
<g style="mix-blend-mode:multiply" filter="url(#filter0_f_138_558)">
<rect x="89.2729" y="130.455" width="123.273" height="9.81818" rx="4.90909" fill="#A4A4A4"/>
</g>
<g style="mix-blend-mode:multiply" filter="url(#filter1_f_138_558)">
<rect x="310.727" y="130.455" width="153.818" height="9.81818" rx="4.90909" fill="#A4A4A4"/>
</g>
<g style="mix-blend-mode:multiply" filter="url(#filter2_f_138_558)">
<rect x="554" y="130.455" width="153.818" height="9.81818" rx="4.90909" fill="#A4A4A4"/>
</g>
<g style="mix-blend-mode:multiply" filter="url(#filter3_f_138_558)">
<rect x="791.818" y="130.455" width="153.818" height="9.81818" rx="4.90909" fill="#A4A4A4"/>
</g>
<g style="mix-blend-mode:multiply" filter="url(#filter4_f_138_558)">
<rect x="1036.18" y="130.455" width="153.818" height="9.81818" rx="4.90909" fill="#A4A4A4"/>
</g>
<path fill-rule="evenodd" clip-rule="evenodd" d="M148 52.2262C148 41.4081 154.919 32.6643 163.288 32.6643C171.681 32.6643 178.6 41.4081 178.6 52.2262C178.6 57.6776 177.083 62.7386 174.585 67.0282C171.83 71.7599 168.434 75.8825 164.611 79.1185C163.737 79.8664 162.947 79.9228 161.987 79.1185C158.143 75.8825 154.747 71.7599 152.015 67.0282C149.516 62.7386 148 57.6776 148 52.2262ZM158.25 52.8356C158.25 56.4597 160.513 59.31 163.288 59.31C166.065 59.31 168.351 56.4597 168.351 52.8356C168.351 49.2398 166.065 46.2507 163.288 46.2507C160.513 46.2507 158.25 49.2398 158.25 52.8356Z" fill="#DB6A65"/>
<g clip-path="url(#clip1_138_558)">
<path d="M657.001 55.4189C657.001 54.9208 656.742 54.5996 656.167 54.379C654.398 53.7013 653.159 52.4923 652.491 50.7113C652.28 50.1407 651.91 49.8413 651.429 49.8398C650.947 49.8384 650.592 50.135 650.372 50.7113C649.694 52.4846 648.462 53.7041 646.692 54.3819C646.143 54.5932 645.847 54.9455 645.841 55.4161C645.836 55.8867 646.134 56.2742 646.67 56.4729C648.48 57.1421 649.708 58.3913 650.39 60.1892C650.597 60.7366 650.924 60.9951 651.409 61.0008C651.915 61.0071 652.244 60.7415 652.475 60.1962C652.657 59.7679 652.84 59.3318 653.088 58.9408C653.803 57.7997 654.883 56.9346 656.152 56.4869C656.735 56.2728 657.001 55.9283 657.001 55.4189Z" fill="white"/>
<path d="M621 49.4693C621.218 48.9959 621.621 48.781 622.098 48.6359C623.441 48.2279 624.764 47.7672 625.951 46.9901C628.249 45.4871 629.832 43.4335 630.698 40.8291C630.865 40.331 631.025 39.8308 631.197 39.3348C631.37 38.8389 631.728 38.5641 632.207 38.5599C632.707 38.555 633.052 38.817 633.248 39.3348C633.635 40.3726 633.942 41.4519 634.431 42.4396C635.868 45.3401 638.184 47.2592 641.253 48.2737C641.707 48.4238 642.163 48.5689 642.614 48.7267C643.172 48.9219 643.44 49.2692 643.441 49.7729C643.442 50.2767 643.175 50.6141 642.617 50.8198C641.622 51.1869 640.59 51.4786 639.641 51.9414C636.707 53.373 634.761 55.6923 633.727 58.783C633.564 59.2698 633.409 59.7601 633.234 60.2434C633.059 60.7436 632.695 61.0008 632.212 61.0008C631.73 61.0008 631.378 60.7239 631.197 60.2301C630.831 59.2346 630.541 58.2011 630.083 57.25C628.665 54.3079 626.358 52.3493 623.271 51.3017C622.873 51.1672 622.479 51.0157 622.074 50.91C621.597 50.7853 621.23 50.5423 621 50.1019V49.4693Z" fill="#C88C52"/>
<path d="M648.352 25C648.79 25.2114 649.001 25.5876 649.17 26.0293C650.421 29.3067 652.686 31.5743 655.966 32.8321C656.076 32.8744 656.186 32.9124 656.293 32.9582C656.73 33.1442 656.992 33.4584 656.998 33.9495C657.005 34.418 656.746 34.7709 656.284 34.9731C655.59 35.2768 654.871 35.5402 654.217 35.9158C651.78 37.3156 650.083 39.3559 649.125 41.9999C648.964 42.4452 648.737 42.8017 648.248 42.9123C647.724 43.0299 647.219 42.7305 647.018 42.1634C646.615 41.002 646.033 39.9107 645.293 38.929C643.915 37.1038 642.023 35.7325 639.859 34.9914C639.408 34.8336 639.124 34.5384 639.076 34.0572C639.024 33.5394 639.303 33.1343 639.846 32.9406C641.209 32.4673 642.472 31.7464 643.572 30.8144C645.085 29.5424 646.235 27.8931 646.905 26.0335C647.067 25.5869 647.288 25.2184 647.719 25H648.352Z" fill="#C88C52"/>
<path d="M626.907 25C627.329 25.2269 627.532 25.6031 627.709 26.0399C628.392 27.7215 629.601 28.8812 631.306 29.5173C631.995 29.7745 632.296 30.3015 632.099 30.9017C631.971 31.2899 631.676 31.4914 631.304 31.6281C629.931 32.1135 628.782 33.0813 628.071 34.351C627.894 34.68 627.739 35.0203 627.607 35.3698C627.408 35.8566 627.043 36.1489 626.592 36.1602C626.142 36.1715 625.739 35.8826 625.548 35.3705C624.859 33.5282 623.598 32.2755 621.754 31.5774C621.46 31.466 621.249 31.1356 621 30.9067V30.2726C621.197 29.859 621.529 29.6385 621.956 29.4694C623.638 28.8178 624.817 27.6377 625.469 25.9546C625.636 25.5284 625.861 25.1966 626.273 25H626.907Z" fill="#C88C52"/>
<path d="M626.273 25C625.861 25.1966 625.636 25.5284 625.469 25.9553C624.817 27.6363 623.638 28.8185 621.956 29.4701C621.529 29.6357 621.197 29.8612 621 30.2733V25H626.273Z" fill="white"/>
<path d="M657.001 55.4189C657.001 55.9282 656.736 56.2727 656.152 56.4862C654.882 56.9339 653.802 57.7989 653.088 58.94C652.84 59.331 652.656 59.7671 652.474 60.1955C652.243 60.7408 651.915 61.0064 651.408 61C650.923 60.9944 650.597 60.7358 650.389 60.1884C649.707 58.394 648.476 57.1414 646.668 56.4721C646.132 56.2741 645.833 55.8838 645.84 55.4153C645.846 54.9468 646.142 54.5911 646.691 54.3811C648.46 53.7034 649.693 52.4839 650.37 50.7106C650.591 50.1343 650.948 49.8384 651.427 49.8391C651.906 49.8398 652.273 50.1399 652.49 50.7106C653.157 52.4916 654.397 53.7006 656.166 54.3783C656.741 54.5995 657.001 54.9208 657.001 55.4189Z" fill="#C88C52"/>
</g>
<path fill-rule="evenodd" clip-rule="evenodd" d="M391.594 32.6643H408.388C414.508 32.6643 418 37.1798 418 45.1995V67.1654C418 75.138 414.526 79.7005 408.406 79.7005H391.594C385.456 79.7005 382 75.138 382 67.1654V45.1995C382 37.1798 385.456 32.6643 391.594 32.6643ZM401.476 58.1343H406.588C407.416 58.1108 408.082 57.2406 408.082 56.1588C408.082 55.077 407.416 54.2068 406.588 54.2068H401.476V47.5747C401.476 46.4929 400.81 45.6227 399.982 45.6227C399.154 45.6227 398.488 46.4929 398.488 47.5747V54.2068H393.394C392.998 54.2068 392.62 54.4185 392.332 54.7712C392.062 55.1475 391.9 55.639 391.9 56.1588C391.9 57.2406 392.566 58.1108 393.394 58.1343H398.488V64.7899C398.488 65.8718 399.154 66.742 399.982 66.742C400.81 66.742 401.476 65.8718 401.476 64.7899V58.1343Z" fill="#D07C5B"/>
<path fill-rule="evenodd" clip-rule="evenodd" d="M887.083 38.3321C887.083 35.2042 889.081 32.6643 891.542 32.6643C894.002 32.6643 896 35.2042 896 38.3321C896 41.46 894.002 43.9999 891.542 43.9999C889.081 43.9999 887.083 41.46 887.083 38.3321ZM879.96 62.6715L885.307 53.9017L885.233 53.9487C885.529 53.4313 885.584 52.7728 885.381 52.1849C885.179 51.5969 884.733 51.1971 884.254 51.1501C883.753 51.0795 883.255 51.3617 882.957 51.8791L878.482 59.2402L873.356 54.1133C873.041 53.8076 872.671 53.6877 872.301 53.737C871.933 53.8076 871.6 54.0639 871.376 54.4402L865.902 63.497L865.789 63.7087C865.475 64.4589 865.623 65.4231 866.178 65.9429C866.437 66.1545 866.714 66.2956 867.029 66.2956C867.456 66.3191 867.861 66.0346 868.12 65.5901L872.764 57.9914L878.036 63.0266L878.203 63.1654C878.795 63.5652 879.535 63.3794 879.96 62.6715ZM883.882 36.8511C883.808 37.4391 883.771 38.027 883.771 38.6149C883.771 43.9065 887.138 48.1844 891.282 48.1844C891.745 48.1844 892.189 48.1162 892.651 48.0221V66.9987C892.651 74.9737 888.951 79.7008 882.661 79.7008H868.992C862.7 79.7008 859 74.9737 859 66.9987V49.5978C859 41.6017 862.7 36.8511 868.992 36.8511H883.882Z" fill="#B6AE35"/>
<path fill-rule="evenodd" clip-rule="evenodd" d="M1105.21 28.7446H1120.81C1126.91 28.7446 1131 34.342 1131 42.6674V61.8842C1131 70.1838 1126.91 75.7811 1120.81 75.7811H1105.21C1099.1 75.7811 1095 70.1838 1095 61.8842V42.6674C1095 34.342 1099.1 28.7446 1105.21 28.7446ZM1111.97 59.2952L1120.52 48.124C1121.14 47.3244 1121.14 46.0309 1120.52 45.2077C1119.91 44.4081 1118.9 44.4081 1118.29 45.2077L1110.86 54.9208L1107.71 50.8051C1107.1 50.0055 1106.09 50.0055 1105.48 50.8051C1104.86 51.6047 1104.86 52.8982 1105.48 53.7213L1109.76 59.2952C1110.07 59.695 1110.46 59.8831 1110.86 59.8831C1111.27 59.8831 1111.67 59.695 1111.97 59.2952Z" fill="#AACB24"/>
</g>
<defs>
<filter id="filter0_f_138_558" x="23.8184" y="65" width="254.182" height="140.727" filterUnits="userSpaceOnUse" color-interpolation-filters="sRGB">
<feFlood flood-opacity="0" result="BackgroundImageFix"/>
<feBlend mode="normal" in="SourceGraphic" in2="BackgroundImageFix" result="shape"/>
<feGaussianBlur stdDeviation="32.7273" result="effect1_foregroundBlur_138_558"/>
</filter>
<filter id="filter1_f_138_558" x="245.273" y="65" width="284.727" height="140.727" filterUnits="userSpaceOnUse" color-interpolation-filters="sRGB">
<feFlood flood-opacity="0" result="BackgroundImageFix"/>
<feBlend mode="normal" in="SourceGraphic" in2="BackgroundImageFix" result="shape"/>
<feGaussianBlur stdDeviation="32.7273" result="effect1_foregroundBlur_138_558"/>
</filter>
<filter id="filter2_f_138_558" x="488.545" y="65" width="284.727" height="140.727" filterUnits="userSpaceOnUse" color-interpolation-filters="sRGB">
<feFlood flood-opacity="0" result="BackgroundImageFix"/>
<feBlend mode="normal" in="SourceGraphic" in2="BackgroundImageFix" result="shape"/>
<feGaussianBlur stdDeviation="32.7273" result="effect1_foregroundBlur_138_558"/>
</filter>
<filter id="filter3_f_138_558" x="726.364" y="65" width="284.727" height="140.727" filterUnits="userSpaceOnUse" color-interpolation-filters="sRGB">
<feFlood flood-opacity="0" result="BackgroundImageFix"/>
<feBlend mode="normal" in="SourceGraphic" in2="BackgroundImageFix" result="shape"/>
<feGaussianBlur stdDeviation="32.7273" result="effect1_foregroundBlur_138_558"/>
</filter>
<filter id="filter4_f_138_558" x="970.727" y="65" width="284.727" height="140.727" filterUnits="userSpaceOnUse" color-interpolation-filters="sRGB">
<feFlood flood-opacity="0" result="BackgroundImageFix"/>
<feBlend mode="normal" in="SourceGraphic" in2="BackgroundImageFix" result="shape"/>
<feGaussianBlur stdDeviation="32.7273" result="effect1_foregroundBlur_138_558"/>
</filter>
<linearGradient id="paint0_linear_138_558" x1="1176.91" y1="103.182" x2="98" y2="91.7269" gradientUnits="userSpaceOnUse">
<stop stop-color="#A5D61C"/>
<stop offset="1" stop-color="#DD6866"/>
</linearGradient>
<clipPath id="clip0_138_558">
<rect width="1276" height="179" fill="white"/>
</clipPath>
<clipPath id="clip1_138_558">
<rect width="36" height="36" fill="white" transform="translate(621 25)"/>
</clipPath>
</defs>
</svg>
