<svg width="20" height="20" viewBox="0 0 20 20" fill="none" xmlns="http://www.w3.org/2000/svg">
<g clip-path="url(#clip0_135_24)">
<path fill-rule="evenodd" clip-rule="evenodd" d="M6.84221 4.73683C6.84221 3.89931 7.17491 3.09608 7.76713 2.50386C8.35935 1.91164 9.16258 1.57894 10.0001 1.57894C10.8376 1.57894 11.6409 1.91164 12.2331 2.50386C12.8253 3.09608 13.158 3.89931 13.158 4.73683C13.158 5.57436 12.8253 6.37758 12.2331 6.9698C11.6409 7.56202 10.8376 7.89473 10.0001 7.89473C9.16258 7.89473 8.35935 7.56202 7.76713 6.9698C7.17491 6.37758 6.84221 5.57436 6.84221 4.73683ZM10.0001 0.526306C8.8834 0.526306 7.81244 0.969914 7.02281 1.75954C6.23318 2.54917 5.78958 3.62013 5.78958 4.73683C5.78958 5.85353 6.23318 6.9245 7.02281 7.71412C7.81244 8.50375 8.8834 8.94736 10.0001 8.94736C11.1168 8.94736 12.1878 8.50375 12.9774 7.71412C13.767 6.9245 14.2106 5.85353 14.2106 4.73683C14.2106 3.62013 13.767 2.54917 12.9774 1.75954C12.1878 0.969914 11.1168 0.526306 10.0001 0.526306ZM15.8738 13.3158C17.0527 14.1789 17.8001 15.6737 17.8843 18.421H2.11589C2.2001 15.6842 2.94747 14.1789 4.11589 13.3158C5.43168 12.3684 7.36852 12.1053 10.0001 12.1053C12.6317 12.1053 14.5791 12.3789 15.8738 13.3158ZM10.0001 11.0526C7.36852 11.0526 5.10537 11.3053 3.50537 12.4737C1.86326 13.6631 1.05273 15.7158 1.05273 18.9474V19.4737H18.9475V18.9474C18.9475 15.7158 18.1369 13.6631 16.4948 12.4737C14.8948 11.3158 12.6317 11.0526 10.0001 11.0526Z" fill="#121212"/>
</g>
<defs>
<clipPath id="clip0_135_24">
<rect width="20" height="20" fill="white"/>
</clipPath>
</defs>
</svg>
